# xmcd
#
# Track frame offsets: 
#        150
#        18627
#        32547
#        55062
#        75825
#        92855
#        109020
#        123987
#        138362
#        154115
#        174110
#
# Disc length: 2450 seconds
#
# Revision: 0
# Processed by: cddbd v1.5.1PL2 Copyright (c) Steve Scherf et al.
# Submitted via: ExactAudioCopy v0.95a3
#
DISCID=7909900b
DTITLE=Carl Wayne - Songs From The Wood And Beyond 1973 - 2003
DYEAR=2006
DGENRE=Easy Listening
TTITLE0=Aerial Pictures
TTITLE1=Deeper Than Love
TTITLE2=Midnight Blue
TTITLE3=Colourful Lady
TTITLE4=Givin' Your Heart Away
TTITLE5=Never Said No Before
TTITLE6=Hazel Eyes
TTITLE7=Miss You Nights
TTITLE8=Hot Cars
TTITLE9=Steppin' Out
TTITLE10=Someday
EXTD=
EXTT0=
EXTT1=
EXTT2=
EXTT3=
EXTT4=
EXTT5=
EXTT6=
EXTT7=
EXTT8=
EXTT9=
EXTT10=
PLAYORDER=
